<?xml version="1.0" encoding="UTF-8"?>
<svg width="1200pt" height="1200pt" version="1.1" viewBox="0 0 1200 1200" xmlns="http://www.w3.org/2000/svg">
 <path d="m1195.5 257.36c0-34.621-23.449-62.797-55.117-72.191v-170.76h-42.539v170.69c-31.668 9.3125-55.262 37.488-55.262 72.266 0 34.848 23.605 62.867 55.262 72.109v211.52s-0.61328 16.453-19.246 16.453c-19.871-0.3125-18.938-16.453-18.938-16.453v-25.766s-0.9375-32.605-19.57-32.605c-18.625 0-18.625 32.605-18.625 32.605v24.215s1.3906 60.852 58.066 60.852c59.902 0 60.84-62.41 60.84-62.41v-208.4c31.68-9.4023 55.129-37.336 55.129-72.113zm-76.535 32.594c-18 0-32.605-14.594-32.605-32.605 0-17.855 14.605-32.449 32.605-32.449s32.605 14.594 32.605 32.449c-0.003906 18.012-14.605 32.605-32.605 32.605z"/>
 <path d="m1134.8 928.77 62.398-87.852s-432.96-469.45-967.91 11.484l-217.79-124.83 96.406 184.26-107.9 198.57 231.3-109.29c560.1 417.58 968.7-4.3516 968.7-4.3516zm-93.758-29.188c-27.637 0-49.992-22.668-49.992-50.137 0-27.793 22.355-50.16 49.992-50.16 27.781 0 50.293 22.355 50.293 50.16 0 27.469-22.512 50.137-50.293 50.137z"/>
</svg>
